<svg
  xmlns="http://www.w3.org/2000/svg"
  xmlns:xlink="http://www.w3.org/1999/xlink"
  viewBox="0.3 1.7 208 143.1"
>
  <style>
    .B {
      fill: #fff;
    }
    .C {
      stroke-linecap: round;
    }
    .D {
      stroke-width: 1.395;
    }
    .E {
      stroke: #a4afb7;
    }
    .F {
      fill-rule: nonzero;
    }
    .G {
      stroke-linejoin: round;
    }
    .H {
      fill: #d5dadf;
    }
  </style>
  <g fill="none" fill-rule="evenodd">
    <path
      d="M53.8 136.8h122.8m4 0h5.5m-141.2 0h5.6m139 0h1.6m-150.7 0h1.7"
      class="C D E"
    />
    <path
      d="M121.3 47.5c6 1.7 9.1 3.2 9.1 4.6"
      stroke="#170040"
      class="C D G"
    />
    <path
      d="m3 132.5-.2-33.3-1.8-.6V86l42.6-5L86 86v12.6l-1.8.6-.3 33.3-40.4 9z"
      class="D E H"
    />
    <path
      fill-opacity=".5"
      fill="#c2cbd2"
      d="m1 86.6 42.6-4.9v62.1L3 136.5l-.3-37.3-1.8-.6z"
    />
    <g class="D E H">
      <path d="m3 136.5-.2-37.3 40.8 5.6 40.7-5.6-.3 37.3-40.4 7.6z" />
      <path d="M1 98.6V86.4l42.6 5.1 42.5-5v12.1l-42.5 6.2z" />
    </g>
    <path
      fill-opacity=".5"
      d="M83.5 113.6V100l-35 4.8zm2-26.5-41.3 5.1.1 11.7 41.1-5.8z"
      fill="#c2cbd2"
    />
    <g class="D E">
      <path d="M43.6 91.5v52.3" />
      <g class="B F">
        <path
          d="M76.5 65.7c-6 5.8-16.4 9.4-18.6 13.3A22.2 22.2 0 0 0 56 90a72 72 0 0 0 6.5-.8c-.3-3.6.4-5.8 1.1-6.8 2.6-3.5 18-7.8 18.3-11"
          class="C G"
        />
        <path
          d="m141.1 29.8-52-.8c-3.6 0-7 1.4-9.4 4L77 36.4a16 16 0 0 0-2 2.6c-2 3.4-3 6-3 7.5-.7 21-.9 36.2-.5 45.7a47 47 0 0 0 1.8 11.4A16 16 0 0 0 88.6 115h60a16 16 0 0 0 16-16V49a16 16 0 0 0-11-15.2l-12.5-4z"
        />
      </g>
    </g>
    <rect x="70.3" y="28.2" width="81.7" height="81.9" rx="21.8" class="B F" />
    <g class="D E B F">
      <rect x="71" y="28.9" width="80.3" height="80.5" rx="16.7" />
      <g class="C G">
        <use xlink:href="#B" />
        <use xlink:href="#B" x="-23.4" />
      </g>
    </g>
    <rect
      fill-opacity=".7"
      fill="#e6e9ec"
      x="75.3"
      y="32.9"
      width="71.9"
      height="71.9"
      rx="11.5"
      class="F"
    />
    <path
      d="M97.1 72.2c0 1.8-2.2 3.3-5 3.3s-5-1.4-5-3.3 2.2-3.2 5-3.2 5 1.4 5 3.2m23.5 0c0 1.8 2.2 3.3 5 3.3s5-1.4 5-3.3-2.2-3.2-5-3.2-5 1.4-5 3.2"
      class="H"
    />
    <g class="D E">
      <path
        d="M94.3 70.7c3 0 5.8-2.4 5.8-6s-2.4-5.6-5.4-5.6-5.5 2.6-5.5 6.1 2.1 5.5 5.1 5.5z"
        class="B"
      />
      <path d="M94 62.2c-.7 2-.7 3.6 0 5" class="C" />
      <path
        d="M123.6 70.7c-3 0-5.7-2.4-5.7-6s2.3-5.6 5.3-5.6 5.5 2.6 5.5 6.1-2.1 5.5-5.1 5.5z"
        class="B"
      />
      <path d="M123.8 62.2c.8 2 .8 3.6 0 5" class="C" />
      <g class="B">
        <path
          d="M172.7 136.4h-7.3l-1.3-2.2-6-10-.1-.2c-1-1.8-.7-3.9 1-4.8l.5-.2a3.2 3.2 0 0 1 4 1.6l.1.4 2 6.5-1.3-10.6a4.4 4.4 0 0 1 4-4.7 4.3 4.3 0 0 1 .5 0h.2a4.5 4.5 0 0 1 4.3 4.9l-2 14.5c.1.8.8-1.6 2.1-7.3a2.7 2.7 0 0 1 3.8-1.4c1.5.8 1.6 2.2.8 3.7l-5.3 9.8z"
        />
        <path
          d="M161.1 131c3 0 5.5 2.4 5.6 5.4v.2h-11.2c0-3 2.4-5.5 5.4-5.6h.2z"
        />
      </g>
      <ellipse fill="#a4afb7" cx="108.8" cy="83.8" rx="5.2" ry="7" />
      <g class="B">
        <path
          d="M108.8 81c2.9 0 4.3-1 4-1.3-.9-1.7-2.4-2.9-4-2.9s-3 1-4 2.7c-.1.3 1.1 1.5 4 1.5z"
        />
        <path
          d="M158.6 79.8c5.5 3.2 11.2 10 14 9.7 6-.5 6.7-9.1 7.2-17.2.7-10 6.3 1.4 9.2-5.6 1.5-3.6-5.5-7-9.2-5.5s-4.1 4.5-4.5 7.4c-.2 1.8-1.5 13.9-3 13.7-2.7-.3-9.7-10.8-13.7-11.6"
          class="C F G"
        />
      </g>
      <path
        d="M194.8 50.5c5 3 8 7.2 9 12.8m-.7-13c.5.4 4.1 2.2 4.5 6.7"
        class="C"
      />
    </g>
    <path
      d="M85.8 39a11.7 11.7 0 0 0-4.8 5.3"
      stroke="#fff"
      stroke-width="3.3"
      class="C"
    />
    <circle cx="79.4" cy="49.4" r="1.3" class="B" />
    <g class="D E">
      <g class="C">
        <path
          d="M96.8 47.5c-6.1 1.7-9.2 3.2-9.2 4.6m35-4.6c6 1.7 9 3.2 9 4.6"
          class="G"
        />
        <path
          d="M23.2 55.8c.5 3 2.8 2 3 1.8 2-1.2 3.1-1.7 4.4-.6 2 1.7-1.5 5 .7 6.5 2.6 2 3.7-3.7 7-1.7s-1.6 5.6 4 6.1m7.2-65.5c2.2.2 4.2 1.2 4.2 3.2 0 2.5-4.2 3-3.4 5.6 1 3.2 5-.4 5.8 3.5s-7.2 4-1.8 7.8"
        />
      </g>
      <g class="B">
        <path
          d="m47.2 41.3 9.2 2.2a.3.3 0 0 1 .1.6l-7 7a.3.3 0 0 1-.5-.2l-2.2-9.2a.3.3 0 0 1 .4-.4z"
        />
        <circle cx="28.9" cy="32.9" r="4.9" />
      </g>
    </g>
  </g>
  <defs>
    <path
      id="B"
      d="m123.3 112.7.5 18.7h-1.3a2.6 2.6 0 1 0 0 5.2h4a3.5 3.5 0 0 0 3.6-3.5c0-.6-1.5-9.6-1.1-20.4"
    />
  </defs>
</svg>
